<mxfile host="app.diagrams.net" modified="2022-11-14T04:31:23.863Z" agent="5.0 (Windows NT 10.0; Win64; x64) AppleWebKit/537.36 (KHTML, like Gecko) Chrome/107.0.0.0 Safari/537.36" etag="UlN6YA2A6FOl3xBHZgUC" version="20.5.3" type="github">
  <diagram id="KyUGg_UbbIFL0ws5pZS4" name="第1頁">
    <mxGraphModel dx="1303" dy="713" grid="1" gridSize="10" guides="1" tooltips="1" connect="1" arrows="1" fold="1" page="1" pageScale="1" pageWidth="827" pageHeight="1169" math="0" shadow="0">
      <root>
        <mxCell id="0" />
        <mxCell id="1" parent="0" />
        <mxCell id="I64qCaf_hW1Dzb8PZxxJ-1" value="User" style="shape=table;startSize=30;container=1;collapsible=1;childLayout=tableLayout;fixedRows=1;rowLines=0;fontStyle=1;align=center;resizeLast=1;fontFamily=Verdana;fontSize=14;fillColor=#fa6800;fontColor=#000000;strokeColor=#C73500;" vertex="1" parent="1">
          <mxGeometry x="80.00000000000003" y="270" width="180" height="150" as="geometry" />
        </mxCell>
        <mxCell id="I64qCaf_hW1Dzb8PZxxJ-2" value="" style="shape=tableRow;horizontal=0;startSize=0;swimlaneHead=0;swimlaneBody=0;fillColor=none;collapsible=0;dropTarget=0;points=[[0,0.5],[1,0.5]];portConstraint=eastwest;top=0;left=0;right=0;bottom=1;fontFamily=Verdana;fontSize=14;" vertex="1" parent="I64qCaf_hW1Dzb8PZxxJ-1">
          <mxGeometry y="30" width="180" height="30" as="geometry" />
        </mxCell>
        <mxCell id="I64qCaf_hW1Dzb8PZxxJ-3" value="PK" style="shape=partialRectangle;connectable=0;fillColor=none;top=0;left=0;bottom=0;right=0;fontStyle=1;overflow=hidden;fontFamily=Verdana;fontSize=14;" vertex="1" parent="I64qCaf_hW1Dzb8PZxxJ-2">
          <mxGeometry width="30" height="30" as="geometry">
            <mxRectangle width="30" height="30" as="alternateBounds" />
          </mxGeometry>
        </mxCell>
        <mxCell id="I64qCaf_hW1Dzb8PZxxJ-4" value="id" style="shape=partialRectangle;connectable=0;fillColor=#fad7ac;top=0;left=0;bottom=0;right=0;align=left;spacingLeft=6;fontStyle=5;overflow=hidden;fontFamily=Verdana;fontSize=14;strokeColor=#b46504;" vertex="1" parent="I64qCaf_hW1Dzb8PZxxJ-2">
          <mxGeometry x="30" width="150" height="30" as="geometry">
            <mxRectangle width="150" height="30" as="alternateBounds" />
          </mxGeometry>
        </mxCell>
        <mxCell id="I64qCaf_hW1Dzb8PZxxJ-5" value="" style="shape=tableRow;horizontal=0;startSize=0;swimlaneHead=0;swimlaneBody=0;fillColor=none;collapsible=0;dropTarget=0;points=[[0,0.5],[1,0.5]];portConstraint=eastwest;top=0;left=0;right=0;bottom=0;fontFamily=Verdana;fontSize=14;" vertex="1" parent="I64qCaf_hW1Dzb8PZxxJ-1">
          <mxGeometry y="60" width="180" height="30" as="geometry" />
        </mxCell>
        <mxCell id="I64qCaf_hW1Dzb8PZxxJ-6" value="" style="shape=partialRectangle;connectable=0;fillColor=none;top=0;left=0;bottom=0;right=0;editable=1;overflow=hidden;fontFamily=Verdana;fontSize=14;" vertex="1" parent="I64qCaf_hW1Dzb8PZxxJ-5">
          <mxGeometry width="30" height="30" as="geometry">
            <mxRectangle width="30" height="30" as="alternateBounds" />
          </mxGeometry>
        </mxCell>
        <mxCell id="I64qCaf_hW1Dzb8PZxxJ-7" value="name" style="shape=partialRectangle;connectable=0;fillColor=#fad7ac;top=0;left=0;bottom=0;right=0;align=left;spacingLeft=6;overflow=hidden;fontFamily=Verdana;fontSize=14;strokeColor=#b46504;" vertex="1" parent="I64qCaf_hW1Dzb8PZxxJ-5">
          <mxGeometry x="30" width="150" height="30" as="geometry">
            <mxRectangle width="150" height="30" as="alternateBounds" />
          </mxGeometry>
        </mxCell>
        <mxCell id="I64qCaf_hW1Dzb8PZxxJ-8" value="" style="shape=tableRow;horizontal=0;startSize=0;swimlaneHead=0;swimlaneBody=0;fillColor=none;collapsible=0;dropTarget=0;points=[[0,0.5],[1,0.5]];portConstraint=eastwest;top=0;left=0;right=0;bottom=0;fontFamily=Verdana;fontSize=14;" vertex="1" parent="I64qCaf_hW1Dzb8PZxxJ-1">
          <mxGeometry y="90" width="180" height="30" as="geometry" />
        </mxCell>
        <mxCell id="I64qCaf_hW1Dzb8PZxxJ-9" value="" style="shape=partialRectangle;connectable=0;fillColor=none;top=0;left=0;bottom=0;right=0;editable=1;overflow=hidden;fontFamily=Verdana;fontSize=14;" vertex="1" parent="I64qCaf_hW1Dzb8PZxxJ-8">
          <mxGeometry width="30" height="30" as="geometry">
            <mxRectangle width="30" height="30" as="alternateBounds" />
          </mxGeometry>
        </mxCell>
        <mxCell id="I64qCaf_hW1Dzb8PZxxJ-10" value="password" style="shape=partialRectangle;connectable=0;fillColor=#fad7ac;top=0;left=0;bottom=0;right=0;align=left;spacingLeft=6;overflow=hidden;fontFamily=Verdana;fontSize=14;strokeColor=#b46504;" vertex="1" parent="I64qCaf_hW1Dzb8PZxxJ-8">
          <mxGeometry x="30" width="150" height="30" as="geometry">
            <mxRectangle width="150" height="30" as="alternateBounds" />
          </mxGeometry>
        </mxCell>
        <mxCell id="I64qCaf_hW1Dzb8PZxxJ-11" value="" style="shape=tableRow;horizontal=0;startSize=0;swimlaneHead=0;swimlaneBody=0;fillColor=none;collapsible=0;dropTarget=0;points=[[0,0.5],[1,0.5]];portConstraint=eastwest;top=0;left=0;right=0;bottom=0;fontFamily=Verdana;fontSize=14;" vertex="1" parent="I64qCaf_hW1Dzb8PZxxJ-1">
          <mxGeometry y="120" width="180" height="30" as="geometry" />
        </mxCell>
        <mxCell id="I64qCaf_hW1Dzb8PZxxJ-12" value="" style="shape=partialRectangle;connectable=0;fillColor=none;top=0;left=0;bottom=0;right=0;editable=1;overflow=hidden;fontFamily=Verdana;fontSize=14;" vertex="1" parent="I64qCaf_hW1Dzb8PZxxJ-11">
          <mxGeometry width="30" height="30" as="geometry">
            <mxRectangle width="30" height="30" as="alternateBounds" />
          </mxGeometry>
        </mxCell>
        <mxCell id="I64qCaf_hW1Dzb8PZxxJ-13" value="email" style="shape=partialRectangle;connectable=0;fillColor=#fad7ac;top=0;left=0;bottom=0;right=0;align=left;spacingLeft=6;overflow=hidden;fontFamily=Verdana;fontSize=14;strokeColor=#b46504;" vertex="1" parent="I64qCaf_hW1Dzb8PZxxJ-11">
          <mxGeometry x="30" width="150" height="30" as="geometry">
            <mxRectangle width="150" height="30" as="alternateBounds" />
          </mxGeometry>
        </mxCell>
        <mxCell id="I64qCaf_hW1Dzb8PZxxJ-14" value="Comment" style="shape=table;startSize=0;container=1;collapsible=1;childLayout=tableLayout;fixedRows=1;rowLines=0;fontStyle=1;align=center;resizeLast=1;fontFamily=Verdana;fontSize=14;fillColor=#fa6800;fontColor=#000000;strokeColor=#C73500;" vertex="1" parent="1">
          <mxGeometry x="305" y="70" width="180" height="180" as="geometry">
            <mxRectangle x="350" y="490" width="120" height="30" as="alternateBounds" />
          </mxGeometry>
        </mxCell>
        <mxCell id="I64qCaf_hW1Dzb8PZxxJ-15" value="" style="shape=tableRow;horizontal=0;startSize=0;swimlaneHead=0;swimlaneBody=0;fillColor=none;collapsible=0;dropTarget=0;points=[[0,0.5],[1,0.5]];portConstraint=eastwest;top=0;left=0;right=0;bottom=1;fontFamily=Verdana;fontSize=14;" vertex="1" parent="I64qCaf_hW1Dzb8PZxxJ-14">
          <mxGeometry width="180" height="30" as="geometry" />
        </mxCell>
        <mxCell id="I64qCaf_hW1Dzb8PZxxJ-16" value="PK" style="shape=partialRectangle;connectable=0;top=0;left=0;bottom=0;right=0;fontStyle=1;overflow=hidden;fontFamily=Verdana;fontSize=14;" vertex="1" parent="I64qCaf_hW1Dzb8PZxxJ-15">
          <mxGeometry width="30" height="30" as="geometry">
            <mxRectangle width="30" height="30" as="alternateBounds" />
          </mxGeometry>
        </mxCell>
        <mxCell id="I64qCaf_hW1Dzb8PZxxJ-17" value="id" style="shape=partialRectangle;connectable=0;fillColor=#fad7ac;top=0;left=0;bottom=0;right=0;align=left;spacingLeft=6;fontStyle=5;overflow=hidden;fontFamily=Verdana;fontSize=14;strokeColor=#b46504;" vertex="1" parent="I64qCaf_hW1Dzb8PZxxJ-15">
          <mxGeometry x="30" width="150" height="30" as="geometry">
            <mxRectangle width="150" height="30" as="alternateBounds" />
          </mxGeometry>
        </mxCell>
        <mxCell id="I64qCaf_hW1Dzb8PZxxJ-18" value="" style="shape=tableRow;horizontal=0;startSize=0;swimlaneHead=0;swimlaneBody=0;fillColor=none;collapsible=0;dropTarget=0;points=[[0,0.5],[1,0.5]];portConstraint=eastwest;top=0;left=0;right=0;bottom=0;fontFamily=Verdana;fontSize=14;" vertex="1" parent="I64qCaf_hW1Dzb8PZxxJ-14">
          <mxGeometry y="30" width="180" height="30" as="geometry" />
        </mxCell>
        <mxCell id="I64qCaf_hW1Dzb8PZxxJ-19" value="" style="shape=partialRectangle;connectable=0;top=0;left=0;bottom=0;right=0;editable=1;overflow=hidden;fontFamily=Verdana;fontSize=14;" vertex="1" parent="I64qCaf_hW1Dzb8PZxxJ-18">
          <mxGeometry width="30" height="30" as="geometry">
            <mxRectangle width="30" height="30" as="alternateBounds" />
          </mxGeometry>
        </mxCell>
        <mxCell id="I64qCaf_hW1Dzb8PZxxJ-20" value="title" style="shape=partialRectangle;connectable=0;fillColor=#fad7ac;top=0;left=0;bottom=0;right=0;align=left;spacingLeft=6;overflow=hidden;fontFamily=Verdana;fontSize=14;strokeColor=#b46504;" vertex="1" parent="I64qCaf_hW1Dzb8PZxxJ-18">
          <mxGeometry x="30" width="150" height="30" as="geometry">
            <mxRectangle width="150" height="30" as="alternateBounds" />
          </mxGeometry>
        </mxCell>
        <mxCell id="I64qCaf_hW1Dzb8PZxxJ-21" value="" style="shape=tableRow;horizontal=0;startSize=0;swimlaneHead=0;swimlaneBody=0;fillColor=none;collapsible=0;dropTarget=0;points=[[0,0.5],[1,0.5]];portConstraint=eastwest;top=0;left=0;right=0;bottom=0;fontFamily=Verdana;fontSize=14;" vertex="1" parent="I64qCaf_hW1Dzb8PZxxJ-14">
          <mxGeometry y="60" width="180" height="30" as="geometry" />
        </mxCell>
        <mxCell id="I64qCaf_hW1Dzb8PZxxJ-22" value="" style="shape=partialRectangle;connectable=0;top=0;left=0;bottom=0;right=0;editable=1;overflow=hidden;fontFamily=Verdana;fontSize=14;" vertex="1" parent="I64qCaf_hW1Dzb8PZxxJ-21">
          <mxGeometry width="30" height="30" as="geometry">
            <mxRectangle width="30" height="30" as="alternateBounds" />
          </mxGeometry>
        </mxCell>
        <mxCell id="I64qCaf_hW1Dzb8PZxxJ-23" value="text" style="shape=partialRectangle;connectable=0;fillColor=#fad7ac;top=0;left=0;bottom=0;right=0;align=left;spacingLeft=6;overflow=hidden;fontFamily=Verdana;fontSize=14;strokeColor=#b46504;" vertex="1" parent="I64qCaf_hW1Dzb8PZxxJ-21">
          <mxGeometry x="30" width="150" height="30" as="geometry">
            <mxRectangle width="150" height="30" as="alternateBounds" />
          </mxGeometry>
        </mxCell>
        <mxCell id="I64qCaf_hW1Dzb8PZxxJ-24" value="" style="shape=tableRow;horizontal=0;startSize=0;swimlaneHead=0;swimlaneBody=0;fillColor=none;collapsible=0;dropTarget=0;points=[[0,0.5],[1,0.5]];portConstraint=eastwest;top=0;left=0;right=0;bottom=0;fontFamily=Verdana;fontSize=14;" vertex="1" parent="I64qCaf_hW1Dzb8PZxxJ-14">
          <mxGeometry y="90" width="180" height="30" as="geometry" />
        </mxCell>
        <mxCell id="I64qCaf_hW1Dzb8PZxxJ-25" value="FK" style="shape=partialRectangle;connectable=0;top=0;left=0;bottom=0;right=0;editable=1;overflow=hidden;fontFamily=Verdana;fontSize=14;fontStyle=1;" vertex="1" parent="I64qCaf_hW1Dzb8PZxxJ-24">
          <mxGeometry width="30" height="30" as="geometry">
            <mxRectangle width="30" height="30" as="alternateBounds" />
          </mxGeometry>
        </mxCell>
        <mxCell id="I64qCaf_hW1Dzb8PZxxJ-26" value="User_id" style="shape=partialRectangle;connectable=0;fillColor=#fad7ac;top=0;left=0;bottom=0;right=0;align=left;spacingLeft=6;overflow=hidden;fontFamily=Verdana;fontSize=14;strokeColor=#b46504;" vertex="1" parent="I64qCaf_hW1Dzb8PZxxJ-24">
          <mxGeometry x="30" width="150" height="30" as="geometry">
            <mxRectangle width="150" height="30" as="alternateBounds" />
          </mxGeometry>
        </mxCell>
        <mxCell id="I64qCaf_hW1Dzb8PZxxJ-27" style="shape=tableRow;horizontal=0;startSize=0;swimlaneHead=0;swimlaneBody=0;fillColor=none;collapsible=0;dropTarget=0;points=[[0,0.5],[1,0.5]];portConstraint=eastwest;top=0;left=0;right=0;bottom=0;fontFamily=Verdana;fontSize=14;" vertex="1" parent="I64qCaf_hW1Dzb8PZxxJ-14">
          <mxGeometry y="120" width="180" height="30" as="geometry" />
        </mxCell>
        <mxCell id="I64qCaf_hW1Dzb8PZxxJ-28" value="FK" style="shape=partialRectangle;connectable=0;top=0;left=0;bottom=0;right=0;editable=1;overflow=hidden;fontFamily=Verdana;fontSize=14;fontStyle=1;" vertex="1" parent="I64qCaf_hW1Dzb8PZxxJ-27">
          <mxGeometry width="30" height="30" as="geometry">
            <mxRectangle width="30" height="30" as="alternateBounds" />
          </mxGeometry>
        </mxCell>
        <mxCell id="I64qCaf_hW1Dzb8PZxxJ-29" value="Restaurant_id" style="shape=partialRectangle;connectable=0;fillColor=#fad7ac;top=0;left=0;bottom=0;right=0;align=left;spacingLeft=6;overflow=hidden;fontFamily=Verdana;fontSize=14;strokeColor=#b46504;" vertex="1" parent="I64qCaf_hW1Dzb8PZxxJ-27">
          <mxGeometry x="30" width="150" height="30" as="geometry">
            <mxRectangle width="150" height="30" as="alternateBounds" />
          </mxGeometry>
        </mxCell>
        <mxCell id="I64qCaf_hW1Dzb8PZxxJ-30" value="Favorite" style="shape=table;startSize=30;container=1;collapsible=1;childLayout=tableLayout;fixedRows=1;rowLines=0;fontStyle=1;align=center;resizeLast=1;fontFamily=Verdana;fontSize=14;fillColor=#fa6800;fontColor=#000000;strokeColor=#C73500;" vertex="1" parent="1">
          <mxGeometry x="305" y="480" width="180" height="120" as="geometry" />
        </mxCell>
        <mxCell id="I64qCaf_hW1Dzb8PZxxJ-31" value="" style="shape=tableRow;horizontal=0;startSize=0;swimlaneHead=0;swimlaneBody=0;fillColor=none;collapsible=0;dropTarget=0;points=[[0,0.5],[1,0.5]];portConstraint=eastwest;top=0;left=0;right=0;bottom=1;fontFamily=Verdana;fontSize=14;" vertex="1" parent="I64qCaf_hW1Dzb8PZxxJ-30">
          <mxGeometry y="30" width="180" height="30" as="geometry" />
        </mxCell>
        <mxCell id="I64qCaf_hW1Dzb8PZxxJ-32" value="PK" style="shape=partialRectangle;connectable=0;top=0;left=0;bottom=0;right=0;fontStyle=1;overflow=hidden;fontFamily=Verdana;fontSize=14;" vertex="1" parent="I64qCaf_hW1Dzb8PZxxJ-31">
          <mxGeometry width="30" height="30" as="geometry">
            <mxRectangle width="30" height="30" as="alternateBounds" />
          </mxGeometry>
        </mxCell>
        <mxCell id="I64qCaf_hW1Dzb8PZxxJ-33" value="id" style="shape=partialRectangle;connectable=0;fillColor=#fad7ac;top=0;left=0;bottom=0;right=0;align=left;spacingLeft=6;fontStyle=5;overflow=hidden;fontFamily=Verdana;fontSize=14;strokeColor=#b46504;" vertex="1" parent="I64qCaf_hW1Dzb8PZxxJ-31">
          <mxGeometry x="30" width="150" height="30" as="geometry">
            <mxRectangle width="150" height="30" as="alternateBounds" />
          </mxGeometry>
        </mxCell>
        <mxCell id="I64qCaf_hW1Dzb8PZxxJ-34" value="" style="shape=tableRow;horizontal=0;startSize=0;swimlaneHead=0;swimlaneBody=0;fillColor=none;collapsible=0;dropTarget=0;points=[[0,0.5],[1,0.5]];portConstraint=eastwest;top=0;left=0;right=0;bottom=0;fontFamily=Verdana;fontSize=14;" vertex="1" parent="I64qCaf_hW1Dzb8PZxxJ-30">
          <mxGeometry y="60" width="180" height="30" as="geometry" />
        </mxCell>
        <mxCell id="I64qCaf_hW1Dzb8PZxxJ-35" value="FK" style="shape=partialRectangle;connectable=0;top=0;left=0;bottom=0;right=0;editable=1;overflow=hidden;fontFamily=Verdana;fontSize=14;fontStyle=1" vertex="1" parent="I64qCaf_hW1Dzb8PZxxJ-34">
          <mxGeometry width="30" height="30" as="geometry">
            <mxRectangle width="30" height="30" as="alternateBounds" />
          </mxGeometry>
        </mxCell>
        <mxCell id="I64qCaf_hW1Dzb8PZxxJ-36" value="User_id" style="shape=partialRectangle;connectable=0;fillColor=#fad7ac;top=0;left=0;bottom=0;right=0;align=left;spacingLeft=6;overflow=hidden;fontFamily=Verdana;fontSize=14;strokeColor=#b46504;" vertex="1" parent="I64qCaf_hW1Dzb8PZxxJ-34">
          <mxGeometry x="30" width="150" height="30" as="geometry">
            <mxRectangle width="150" height="30" as="alternateBounds" />
          </mxGeometry>
        </mxCell>
        <mxCell id="I64qCaf_hW1Dzb8PZxxJ-37" value="" style="shape=tableRow;horizontal=0;startSize=0;swimlaneHead=0;swimlaneBody=0;fillColor=none;collapsible=0;dropTarget=0;points=[[0,0.5],[1,0.5]];portConstraint=eastwest;top=0;left=0;right=0;bottom=0;fontFamily=Verdana;fontSize=14;" vertex="1" parent="I64qCaf_hW1Dzb8PZxxJ-30">
          <mxGeometry y="90" width="180" height="30" as="geometry" />
        </mxCell>
        <mxCell id="I64qCaf_hW1Dzb8PZxxJ-38" value="FK" style="shape=partialRectangle;connectable=0;top=0;left=0;bottom=0;right=0;editable=1;overflow=hidden;fontFamily=Verdana;fontSize=14;fontStyle=1" vertex="1" parent="I64qCaf_hW1Dzb8PZxxJ-37">
          <mxGeometry width="30" height="30" as="geometry">
            <mxRectangle width="30" height="30" as="alternateBounds" />
          </mxGeometry>
        </mxCell>
        <mxCell id="I64qCaf_hW1Dzb8PZxxJ-39" value="Restaurant_id" style="shape=partialRectangle;connectable=0;fillColor=#fad7ac;top=0;left=0;bottom=0;right=0;align=left;spacingLeft=6;overflow=hidden;fontFamily=Verdana;fontSize=14;strokeColor=#b46504;" vertex="1" parent="I64qCaf_hW1Dzb8PZxxJ-37">
          <mxGeometry x="30" width="150" height="30" as="geometry">
            <mxRectangle width="150" height="30" as="alternateBounds" />
          </mxGeometry>
        </mxCell>
        <mxCell id="I64qCaf_hW1Dzb8PZxxJ-40" value="Restaurant" style="shape=table;startSize=30;container=1;collapsible=1;childLayout=tableLayout;fixedRows=1;rowLines=0;fontStyle=1;align=center;resizeLast=1;fontFamily=Verdana;fontSize=14;fillColor=#fa6800;fontColor=#000000;strokeColor=#C73500;" vertex="1" parent="1">
          <mxGeometry x="520" y="240" width="180" height="210" as="geometry" />
        </mxCell>
        <mxCell id="I64qCaf_hW1Dzb8PZxxJ-41" value="" style="shape=tableRow;horizontal=0;startSize=0;swimlaneHead=0;swimlaneBody=0;fillColor=none;collapsible=0;dropTarget=0;points=[[0,0.5],[1,0.5]];portConstraint=eastwest;top=0;left=0;right=0;bottom=1;fontFamily=Verdana;fontSize=14;" vertex="1" parent="I64qCaf_hW1Dzb8PZxxJ-40">
          <mxGeometry y="30" width="180" height="30" as="geometry" />
        </mxCell>
        <mxCell id="I64qCaf_hW1Dzb8PZxxJ-42" value="PK" style="shape=partialRectangle;connectable=0;fillColor=none;top=0;left=0;bottom=0;right=0;fontStyle=1;overflow=hidden;fontFamily=Verdana;fontSize=14;" vertex="1" parent="I64qCaf_hW1Dzb8PZxxJ-41">
          <mxGeometry width="30" height="30" as="geometry">
            <mxRectangle width="30" height="30" as="alternateBounds" />
          </mxGeometry>
        </mxCell>
        <mxCell id="I64qCaf_hW1Dzb8PZxxJ-43" value="id" style="shape=partialRectangle;connectable=0;fillColor=#fad7ac;top=0;left=0;bottom=0;right=0;align=left;spacingLeft=6;fontStyle=5;overflow=hidden;fontFamily=Verdana;fontSize=14;strokeColor=#b46504;" vertex="1" parent="I64qCaf_hW1Dzb8PZxxJ-41">
          <mxGeometry x="30" width="150" height="30" as="geometry">
            <mxRectangle width="150" height="30" as="alternateBounds" />
          </mxGeometry>
        </mxCell>
        <mxCell id="I64qCaf_hW1Dzb8PZxxJ-44" value="" style="shape=tableRow;horizontal=0;startSize=0;swimlaneHead=0;swimlaneBody=0;fillColor=none;collapsible=0;dropTarget=0;points=[[0,0.5],[1,0.5]];portConstraint=eastwest;top=0;left=0;right=0;bottom=0;fontFamily=Verdana;fontSize=14;" vertex="1" parent="I64qCaf_hW1Dzb8PZxxJ-40">
          <mxGeometry y="60" width="180" height="30" as="geometry" />
        </mxCell>
        <mxCell id="I64qCaf_hW1Dzb8PZxxJ-45" value="" style="shape=partialRectangle;connectable=0;fillColor=none;top=0;left=0;bottom=0;right=0;editable=1;overflow=hidden;fontFamily=Verdana;fontSize=14;fontStyle=1" vertex="1" parent="I64qCaf_hW1Dzb8PZxxJ-44">
          <mxGeometry width="30" height="30" as="geometry">
            <mxRectangle width="30" height="30" as="alternateBounds" />
          </mxGeometry>
        </mxCell>
        <mxCell id="I64qCaf_hW1Dzb8PZxxJ-46" value="name" style="shape=partialRectangle;connectable=0;fillColor=#fad7ac;top=0;left=0;bottom=0;right=0;align=left;spacingLeft=6;overflow=hidden;fontFamily=Verdana;fontSize=14;strokeColor=#b46504;" vertex="1" parent="I64qCaf_hW1Dzb8PZxxJ-44">
          <mxGeometry x="30" width="150" height="30" as="geometry">
            <mxRectangle width="150" height="30" as="alternateBounds" />
          </mxGeometry>
        </mxCell>
        <mxCell id="I64qCaf_hW1Dzb8PZxxJ-47" value="" style="shape=tableRow;horizontal=0;startSize=0;swimlaneHead=0;swimlaneBody=0;fillColor=none;collapsible=0;dropTarget=0;points=[[0,0.5],[1,0.5]];portConstraint=eastwest;top=0;left=0;right=0;bottom=0;fontFamily=Verdana;fontSize=14;" vertex="1" parent="I64qCaf_hW1Dzb8PZxxJ-40">
          <mxGeometry y="90" width="180" height="30" as="geometry" />
        </mxCell>
        <mxCell id="I64qCaf_hW1Dzb8PZxxJ-48" value="" style="shape=partialRectangle;connectable=0;fillColor=none;top=0;left=0;bottom=0;right=0;editable=1;overflow=hidden;fontFamily=Verdana;fontSize=14;fontStyle=1" vertex="1" parent="I64qCaf_hW1Dzb8PZxxJ-47">
          <mxGeometry width="30" height="30" as="geometry">
            <mxRectangle width="30" height="30" as="alternateBounds" />
          </mxGeometry>
        </mxCell>
        <mxCell id="I64qCaf_hW1Dzb8PZxxJ-49" value="address" style="shape=partialRectangle;connectable=0;fillColor=#fad7ac;top=0;left=0;bottom=0;right=0;align=left;spacingLeft=6;overflow=hidden;fontFamily=Verdana;fontSize=14;strokeColor=#b46504;" vertex="1" parent="I64qCaf_hW1Dzb8PZxxJ-47">
          <mxGeometry x="30" width="150" height="30" as="geometry">
            <mxRectangle width="150" height="30" as="alternateBounds" />
          </mxGeometry>
        </mxCell>
        <mxCell id="I64qCaf_hW1Dzb8PZxxJ-50" value="" style="shape=tableRow;horizontal=0;startSize=0;swimlaneHead=0;swimlaneBody=0;fillColor=none;collapsible=0;dropTarget=0;points=[[0,0.5],[1,0.5]];portConstraint=eastwest;top=0;left=0;right=0;bottom=0;fontFamily=Verdana;fontSize=14;" vertex="1" parent="I64qCaf_hW1Dzb8PZxxJ-40">
          <mxGeometry y="120" width="180" height="30" as="geometry" />
        </mxCell>
        <mxCell id="I64qCaf_hW1Dzb8PZxxJ-51" value="" style="shape=partialRectangle;connectable=0;fillColor=none;top=0;left=0;bottom=0;right=0;editable=1;overflow=hidden;fontFamily=Verdana;fontSize=14;fontStyle=1" vertex="1" parent="I64qCaf_hW1Dzb8PZxxJ-50">
          <mxGeometry width="30" height="30" as="geometry">
            <mxRectangle width="30" height="30" as="alternateBounds" />
          </mxGeometry>
        </mxCell>
        <mxCell id="I64qCaf_hW1Dzb8PZxxJ-52" value="tel" style="shape=partialRectangle;connectable=0;fillColor=#fad7ac;top=0;left=0;bottom=0;right=0;align=left;spacingLeft=6;overflow=hidden;fontFamily=Verdana;fontSize=14;strokeColor=#b46504;" vertex="1" parent="I64qCaf_hW1Dzb8PZxxJ-50">
          <mxGeometry x="30" width="150" height="30" as="geometry">
            <mxRectangle width="150" height="30" as="alternateBounds" />
          </mxGeometry>
        </mxCell>
        <mxCell id="I64qCaf_hW1Dzb8PZxxJ-53" style="shape=tableRow;horizontal=0;startSize=0;swimlaneHead=0;swimlaneBody=0;fillColor=none;collapsible=0;dropTarget=0;points=[[0,0.5],[1,0.5]];portConstraint=eastwest;top=0;left=0;right=0;bottom=0;fontFamily=Verdana;fontSize=14;" vertex="1" parent="I64qCaf_hW1Dzb8PZxxJ-40">
          <mxGeometry y="150" width="180" height="30" as="geometry" />
        </mxCell>
        <mxCell id="I64qCaf_hW1Dzb8PZxxJ-54" style="shape=partialRectangle;connectable=0;fillColor=none;top=0;left=0;bottom=0;right=0;editable=1;overflow=hidden;fontFamily=Verdana;fontSize=14;fontStyle=1" vertex="1" parent="I64qCaf_hW1Dzb8PZxxJ-53">
          <mxGeometry width="30" height="30" as="geometry">
            <mxRectangle width="30" height="30" as="alternateBounds" />
          </mxGeometry>
        </mxCell>
        <mxCell id="I64qCaf_hW1Dzb8PZxxJ-55" value="picture" style="shape=partialRectangle;connectable=0;fillColor=#fad7ac;top=0;left=0;bottom=0;right=0;align=left;spacingLeft=6;overflow=hidden;fontFamily=Verdana;fontSize=14;strokeColor=#b46504;" vertex="1" parent="I64qCaf_hW1Dzb8PZxxJ-53">
          <mxGeometry x="30" width="150" height="30" as="geometry">
            <mxRectangle width="150" height="30" as="alternateBounds" />
          </mxGeometry>
        </mxCell>
        <mxCell id="I64qCaf_hW1Dzb8PZxxJ-56" style="shape=tableRow;horizontal=0;startSize=0;swimlaneHead=0;swimlaneBody=0;fillColor=none;collapsible=0;dropTarget=0;points=[[0,0.5],[1,0.5]];portConstraint=eastwest;top=0;left=0;right=0;bottom=0;fontFamily=Verdana;fontSize=14;" vertex="1" parent="I64qCaf_hW1Dzb8PZxxJ-40">
          <mxGeometry y="180" width="180" height="30" as="geometry" />
        </mxCell>
        <mxCell id="I64qCaf_hW1Dzb8PZxxJ-57" value="FK" style="shape=partialRectangle;connectable=0;fillColor=none;top=0;left=0;bottom=0;right=0;editable=1;overflow=hidden;fontFamily=Verdana;fontSize=14;fontStyle=1" vertex="1" parent="I64qCaf_hW1Dzb8PZxxJ-56">
          <mxGeometry width="30" height="30" as="geometry">
            <mxRectangle width="30" height="30" as="alternateBounds" />
          </mxGeometry>
        </mxCell>
        <mxCell id="I64qCaf_hW1Dzb8PZxxJ-58" value="category_id" style="shape=partialRectangle;connectable=0;fillColor=#fad7ac;top=0;left=0;bottom=0;right=0;align=left;spacingLeft=6;overflow=hidden;fontFamily=Verdana;fontSize=14;strokeColor=#b46504;" vertex="1" parent="I64qCaf_hW1Dzb8PZxxJ-56">
          <mxGeometry x="30" width="150" height="30" as="geometry">
            <mxRectangle width="150" height="30" as="alternateBounds" />
          </mxGeometry>
        </mxCell>
        <mxCell id="I64qCaf_hW1Dzb8PZxxJ-60" value="" style="shape=partialRectangle;connectable=0;fillColor=none;top=0;left=0;bottom=0;right=0;editable=1;overflow=hidden;fontFamily=Verdana;fontSize=14;" vertex="1" parent="1">
          <mxGeometry x="730" y="360" width="30" height="30" as="geometry">
            <mxRectangle width="30" height="30" as="alternateBounds" />
          </mxGeometry>
        </mxCell>
        <mxCell id="I64qCaf_hW1Dzb8PZxxJ-61" value="" style="endArrow=none;html=1;rounded=0;fontFamily=Verdana;fontSize=14;exitX=0.5;exitY=1;exitDx=0;exitDy=0;entryX=-0.006;entryY=1.154;entryDx=0;entryDy=0;entryPerimeter=0;" edge="1" parent="1" source="I64qCaf_hW1Dzb8PZxxJ-1" target="I64qCaf_hW1Dzb8PZxxJ-31">
          <mxGeometry relative="1" as="geometry">
            <mxPoint x="420" y="360" as="sourcePoint" />
            <mxPoint x="580" y="360" as="targetPoint" />
          </mxGeometry>
        </mxCell>
        <mxCell id="I64qCaf_hW1Dzb8PZxxJ-62" value="1" style="resizable=0;html=1;align=left;verticalAlign=bottom;fontFamily=Verdana;fontSize=14;fontStyle=1" connectable="0" vertex="1" parent="I64qCaf_hW1Dzb8PZxxJ-61">
          <mxGeometry x="-1" relative="1" as="geometry">
            <mxPoint x="-20" y="30" as="offset" />
          </mxGeometry>
        </mxCell>
        <mxCell id="I64qCaf_hW1Dzb8PZxxJ-63" value="M" style="resizable=0;html=1;align=right;verticalAlign=bottom;fontFamily=Verdana;fontSize=14;fontStyle=1" connectable="0" vertex="1" parent="I64qCaf_hW1Dzb8PZxxJ-61">
          <mxGeometry x="1" relative="1" as="geometry">
            <mxPoint x="-23" y="16" as="offset" />
          </mxGeometry>
        </mxCell>
        <mxCell id="I64qCaf_hW1Dzb8PZxxJ-64" value="" style="endArrow=none;html=1;rounded=0;fontFamily=Verdana;fontSize=14;exitX=0.5;exitY=0;exitDx=0;exitDy=0;entryX=-0.015;entryY=-0.12;entryDx=0;entryDy=0;entryPerimeter=0;" edge="1" parent="1" source="I64qCaf_hW1Dzb8PZxxJ-1" target="I64qCaf_hW1Dzb8PZxxJ-21">
          <mxGeometry relative="1" as="geometry">
            <mxPoint x="420" y="240" as="sourcePoint" />
            <mxPoint x="580" y="240" as="targetPoint" />
          </mxGeometry>
        </mxCell>
        <mxCell id="I64qCaf_hW1Dzb8PZxxJ-65" value="M" style="resizable=0;html=1;align=left;verticalAlign=bottom;fontFamily=Verdana;fontSize=14;fontStyle=1" connectable="0" vertex="1" parent="I64qCaf_hW1Dzb8PZxxJ-64">
          <mxGeometry x="-1" relative="1" as="geometry">
            <mxPoint x="100" y="-120" as="offset" />
          </mxGeometry>
        </mxCell>
        <mxCell id="I64qCaf_hW1Dzb8PZxxJ-66" value="1" style="resizable=0;html=1;align=right;verticalAlign=bottom;fontFamily=Verdana;fontSize=14;fontStyle=1" connectable="0" vertex="1" parent="I64qCaf_hW1Dzb8PZxxJ-64">
          <mxGeometry x="1" relative="1" as="geometry">
            <mxPoint x="-132" y="103" as="offset" />
          </mxGeometry>
        </mxCell>
        <mxCell id="I64qCaf_hW1Dzb8PZxxJ-67" value="" style="endArrow=none;html=1;rounded=0;fontFamily=Verdana;fontSize=14;exitX=1;exitY=0.5;exitDx=0;exitDy=0;entryX=0.5;entryY=0;entryDx=0;entryDy=0;" edge="1" parent="1" source="I64qCaf_hW1Dzb8PZxxJ-18" target="I64qCaf_hW1Dzb8PZxxJ-40">
          <mxGeometry relative="1" as="geometry">
            <mxPoint x="420" y="240" as="sourcePoint" />
            <mxPoint x="580" y="240" as="targetPoint" />
          </mxGeometry>
        </mxCell>
        <mxCell id="I64qCaf_hW1Dzb8PZxxJ-68" value="M" style="resizable=0;html=1;align=left;verticalAlign=bottom;fontFamily=Verdana;fontSize=14;fontStyle=1" connectable="0" vertex="1" parent="I64qCaf_hW1Dzb8PZxxJ-67">
          <mxGeometry x="-1" relative="1" as="geometry">
            <mxPoint x="15" y="5" as="offset" />
          </mxGeometry>
        </mxCell>
        <mxCell id="I64qCaf_hW1Dzb8PZxxJ-69" value="1" style="resizable=0;html=1;align=right;verticalAlign=bottom;fontFamily=Verdana;fontSize=14;fontStyle=1" connectable="0" vertex="1" parent="I64qCaf_hW1Dzb8PZxxJ-67">
          <mxGeometry x="1" relative="1" as="geometry">
            <mxPoint x="10" y="-10" as="offset" />
          </mxGeometry>
        </mxCell>
        <mxCell id="I64qCaf_hW1Dzb8PZxxJ-70" value="" style="endArrow=none;html=1;rounded=0;fontFamily=Verdana;fontSize=14;exitX=1.001;exitY=0.233;exitDx=0;exitDy=0;exitPerimeter=0;entryX=0.5;entryY=1;entryDx=0;entryDy=0;" edge="1" parent="1" source="I64qCaf_hW1Dzb8PZxxJ-34" target="I64qCaf_hW1Dzb8PZxxJ-40">
          <mxGeometry relative="1" as="geometry">
            <mxPoint x="420" y="360" as="sourcePoint" />
            <mxPoint x="580" y="360" as="targetPoint" />
          </mxGeometry>
        </mxCell>
        <mxCell id="I64qCaf_hW1Dzb8PZxxJ-71" value="M" style="resizable=0;html=1;align=left;verticalAlign=bottom;fontFamily=Verdana;fontSize=14;fontStyle=1" connectable="0" vertex="1" parent="I64qCaf_hW1Dzb8PZxxJ-70">
          <mxGeometry x="-1" relative="1" as="geometry">
            <mxPoint x="15" y="23" as="offset" />
          </mxGeometry>
        </mxCell>
        <mxCell id="I64qCaf_hW1Dzb8PZxxJ-72" value="1" style="resizable=0;html=1;align=right;verticalAlign=bottom;fontFamily=Verdana;fontSize=14;fontStyle=1" connectable="0" vertex="1" parent="I64qCaf_hW1Dzb8PZxxJ-70">
          <mxGeometry x="1" relative="1" as="geometry">
            <mxPoint x="20" y="20" as="offset" />
          </mxGeometry>
        </mxCell>
        <mxCell id="I64qCaf_hW1Dzb8PZxxJ-73" value="" style="endArrow=none;html=1;rounded=0;fontFamily=Verdana;fontSize=14;entryX=-0.004;entryY=0.935;entryDx=0;entryDy=0;entryPerimeter=0;exitX=1;exitY=0.5;exitDx=0;exitDy=0;" edge="1" parent="1" source="I64qCaf_hW1Dzb8PZxxJ-47" target="I64qCaf_hW1Dzb8PZxxJ-77">
          <mxGeometry relative="1" as="geometry">
            <mxPoint x="700" y="360" as="sourcePoint" />
            <mxPoint x="728.1999999999998" y="337.1700000000001" as="targetPoint" />
          </mxGeometry>
        </mxCell>
        <mxCell id="I64qCaf_hW1Dzb8PZxxJ-74" value="M" style="resizable=0;html=1;align=left;verticalAlign=bottom;fontFamily=Verdana;fontSize=14;fontStyle=1" connectable="0" vertex="1" parent="I64qCaf_hW1Dzb8PZxxJ-73">
          <mxGeometry x="-1" relative="1" as="geometry" />
        </mxCell>
        <mxCell id="I64qCaf_hW1Dzb8PZxxJ-75" value="1" style="resizable=0;html=1;align=right;verticalAlign=bottom;fontFamily=Verdana;fontSize=14;fontStyle=1" connectable="0" vertex="1" parent="I64qCaf_hW1Dzb8PZxxJ-73">
          <mxGeometry x="1" relative="1" as="geometry" />
        </mxCell>
        <mxCell id="I64qCaf_hW1Dzb8PZxxJ-76" value="Category" style="shape=table;startSize=30;container=1;collapsible=1;childLayout=tableLayout;fixedRows=1;rowLines=0;fontStyle=1;align=center;resizeLast=1;fontFamily=Verdana;fontSize=14;fillColor=#fa6800;fontColor=#000000;strokeColor=#C73500;" vertex="1" parent="1">
          <mxGeometry x="760" y="290" width="180" height="90" as="geometry" />
        </mxCell>
        <mxCell id="I64qCaf_hW1Dzb8PZxxJ-77" value="" style="shape=tableRow;horizontal=0;startSize=0;swimlaneHead=0;swimlaneBody=0;fillColor=none;collapsible=0;dropTarget=0;points=[[0,0.5],[1,0.5]];portConstraint=eastwest;top=0;left=0;right=0;bottom=1;fontFamily=Verdana;fontSize=14;" vertex="1" parent="I64qCaf_hW1Dzb8PZxxJ-76">
          <mxGeometry y="30" width="180" height="30" as="geometry" />
        </mxCell>
        <mxCell id="I64qCaf_hW1Dzb8PZxxJ-78" value="PK" style="shape=partialRectangle;connectable=0;fillColor=none;top=0;left=0;bottom=0;right=0;fontStyle=1;overflow=hidden;fontFamily=Verdana;fontSize=14;" vertex="1" parent="I64qCaf_hW1Dzb8PZxxJ-77">
          <mxGeometry width="30" height="30" as="geometry">
            <mxRectangle width="30" height="30" as="alternateBounds" />
          </mxGeometry>
        </mxCell>
        <mxCell id="I64qCaf_hW1Dzb8PZxxJ-79" value="id" style="shape=partialRectangle;connectable=0;fillColor=#fad7ac;top=0;left=0;bottom=0;right=0;align=left;spacingLeft=6;fontStyle=5;overflow=hidden;fontFamily=Verdana;fontSize=14;strokeColor=#b46504;" vertex="1" parent="I64qCaf_hW1Dzb8PZxxJ-77">
          <mxGeometry x="30" width="150" height="30" as="geometry">
            <mxRectangle width="150" height="30" as="alternateBounds" />
          </mxGeometry>
        </mxCell>
        <mxCell id="I64qCaf_hW1Dzb8PZxxJ-80" value="" style="shape=tableRow;horizontal=0;startSize=0;swimlaneHead=0;swimlaneBody=0;fillColor=none;collapsible=0;dropTarget=0;points=[[0,0.5],[1,0.5]];portConstraint=eastwest;top=0;left=0;right=0;bottom=0;fontFamily=Verdana;fontSize=14;" vertex="1" parent="I64qCaf_hW1Dzb8PZxxJ-76">
          <mxGeometry y="60" width="180" height="30" as="geometry" />
        </mxCell>
        <mxCell id="I64qCaf_hW1Dzb8PZxxJ-81" value="" style="shape=partialRectangle;connectable=0;fillColor=none;top=0;left=0;bottom=0;right=0;editable=1;overflow=hidden;fontFamily=Verdana;fontSize=14;" vertex="1" parent="I64qCaf_hW1Dzb8PZxxJ-80">
          <mxGeometry width="30" height="30" as="geometry">
            <mxRectangle width="30" height="30" as="alternateBounds" />
          </mxGeometry>
        </mxCell>
        <mxCell id="I64qCaf_hW1Dzb8PZxxJ-82" value="name" style="shape=partialRectangle;connectable=0;fillColor=#fad7ac;top=0;left=0;bottom=0;right=0;align=left;spacingLeft=6;overflow=hidden;fontFamily=Verdana;fontSize=14;strokeColor=#b46504;" vertex="1" parent="I64qCaf_hW1Dzb8PZxxJ-80">
          <mxGeometry x="30" width="150" height="30" as="geometry">
            <mxRectangle width="150" height="30" as="alternateBounds" />
          </mxGeometry>
        </mxCell>
      </root>
    </mxGraphModel>
  </diagram>
</mxfile>
